<svg width="24" height="25" viewBox="0 0 24 25" fill="none" xmlns="http://www.w3.org/2000/svg">
<path fill-rule="evenodd" clip-rule="evenodd" d="M20.64 12.7045C20.64 12.0664 20.5827 11.4527 20.4764 10.8636H12V14.345H16.8436C16.635 15.47 16.0009 16.4232 15.0477 17.0614V19.3195H17.9564C19.6582 17.7527 20.64 15.4455 20.64 12.7045Z" fill="#4285F4"/>
<path fill-rule="evenodd" clip-rule="evenodd" d="M12 21.5C14.43 21.5 16.4673 20.6941 17.9564 19.3195L15.0477 17.0614C14.2418 17.6014 13.2109 17.9205 12 17.9205C9.65591 17.9205 7.67182 16.3373 6.96409 14.21H3.95728V16.5418C5.43818 19.4832 8.48182 21.5 12 21.5Z" fill="#34A853"/>
<path fill-rule="evenodd" clip-rule="evenodd" d="M6.96409 14.21C6.78409 13.67 6.68182 13.0932 6.68182 12.5C6.68182 11.9068 6.78409 11.33 6.96409 10.79V8.45818H3.95727C3.34773 9.67318 3 11.0477 3 12.5C3 13.9523 3.34773 15.3268 3.95727 16.5418L6.96409 14.21Z" fill="#FBBC05"/>
<path fill-rule="evenodd" clip-rule="evenodd" d="M12 7.07955C13.3214 7.07955 14.5077 7.53364 15.4405 8.42545L18.0218 5.84409C16.4632 4.39182 14.4259 3.5 12 3.5C8.48182 3.5 5.43818 5.51682 3.95728 8.45818L6.96409 10.79C7.67182 8.66273 9.65591 7.07955 12 7.07955Z" fill="#EA4335"/>
</svg>
