<svg width="24" height="25" viewBox="0 0 24 25" fill="none" xmlns="http://www.w3.org/2000/svg">
<path d="M18.574 14.211C18.8112 14.2079 19.0378 14.1123 19.2055 13.9445C19.3733 13.7768 19.4689 13.5502 19.472 13.313C19.472 12.815 19.073 12.415 18.574 12.415C18.075 12.415 17.676 12.815 17.676 13.313C17.676 13.813 18.076 14.211 18.574 14.211ZM14.149 14.211C14.3862 14.2079 14.6128 14.1123 14.7805 13.9445C14.9483 13.7768 15.0439 13.5502 15.047 13.313C15.047 12.815 14.647 12.415 14.149 12.415C13.649 12.415 13.251 12.815 13.251 13.313C13.251 13.813 13.65 14.211 14.149 14.211ZM20.716 19.251C20.6519 19.2866 20.6008 19.3416 20.5699 19.408C20.539 19.4745 20.5299 19.5491 20.544 19.621C20.544 19.669 20.544 19.718 20.569 19.768C20.667 20.185 20.863 20.849 20.863 20.874C20.863 20.947 20.888 20.996 20.888 21.046C20.888 21.075 20.8823 21.1037 20.8712 21.1304C20.86 21.1572 20.8437 21.1815 20.8232 21.2019C20.8027 21.2224 20.7783 21.2385 20.7515 21.2495C20.7247 21.2605 20.696 21.2661 20.667 21.266C20.617 21.266 20.593 21.242 20.544 21.218L19.095 20.382C18.9892 20.3238 18.8716 20.2903 18.751 20.284C18.678 20.284 18.604 20.284 18.555 20.308C17.867 20.505 17.155 20.603 16.394 20.603C12.734 20.603 9.787 18.146 9.787 15.098C9.787 12.051 12.734 9.593 16.394 9.593C20.053 9.593 23 12.051 23 15.098C23 16.745 22.116 18.244 20.716 19.252V19.251ZM16.673 8.599C16.5797 8.5959 16.4864 8.59423 16.393 8.594C12.219 8.594 8.787 11.454 8.787 15.099C8.787 15.653 8.867 16.189 9.015 16.699H8.926C8.05226 16.6902 7.18347 16.5664 6.342 16.331C6.268 16.306 6.194 16.306 6.12 16.306C5.97221 16.3091 5.82793 16.3516 5.702 16.429L3.954 17.434C3.904 17.459 3.855 17.484 3.806 17.484C3.73463 17.4832 3.66641 17.4545 3.61594 17.4041C3.56548 17.3536 3.53678 17.2854 3.536 17.214C3.536 17.14 3.56 17.091 3.585 17.017C3.609 16.993 3.831 16.183 3.954 15.693C3.954 15.643 3.978 15.57 3.978 15.521C3.97773 15.4353 3.95764 15.3508 3.9193 15.2741C3.88097 15.1974 3.82542 15.1307 3.757 15.079C2.058 13.876 1 12.086 1 10.098C1 6.445 4.57 3.5 8.95 3.5C12.715 3.5 15.88 5.669 16.673 8.598V8.599ZM11.519 9.017C12.092 9.017 12.545 8.54 12.545 7.991C12.545 7.418 12.092 6.965 11.519 6.965C10.946 6.965 10.493 7.418 10.493 7.991C10.493 8.564 10.946 9.017 11.519 9.017ZM6.259 9.017C6.832 9.017 7.286 8.54 7.286 7.991C7.286 7.418 6.832 6.965 6.259 6.965C5.687 6.965 5.233 7.418 5.233 7.991C5.233 8.564 5.687 9.017 6.259 9.017Z" fill="#07BB07"/>
</svg>
