<svg width="51" height="14" viewBox="0 0 51 14" fill="none" xmlns="http://www.w3.org/2000/svg">
<path fill-rule="evenodd" clip-rule="evenodd" d="M10.9729 0H49.9999C50.5522 0 50.9999 0.447715 50.9999 1V12.3243C50.9999 12.8766 50.5522 13.3243 49.9999 13.3243H10.9729V13.126C10.9747 13.1268 10.9765 13.1276 10.9782 13.1284C11.0225 13.1477 11.0704 13.1577 11.1187 13.1577C11.167 13.1577 11.2148 13.1477 11.2591 13.1284C11.3034 13.109 11.3432 13.0807 11.3761 13.0452L19.3391 4.41877C19.3941 4.35919 19.4267 4.28239 19.4314 4.20146C19.4362 4.12052 19.4127 4.04045 19.365 3.97486L16.6841 0.288936C16.619 0.199432 16.5337 0.126595 16.4351 0.0763789C16.3365 0.0261628 16.2274 -7.13342e-06 16.1167 8.25478e-06H10.9729V0ZM22.7454 3H27.5854L27.3654 4.28H24.1354L23.8354 5.95H26.8554L26.6354 7.23H23.6154L23.1254 10H21.5154L22.7454 3ZM28.5657 3H31.0357C31.749 3 32.2957 3.15 32.6757 3.45C33.0557 3.74333 33.2457 4.16667 33.2457 4.72C33.2457 5.26 33.1257 5.70667 32.8857 6.06C32.6524 6.41333 32.289 6.68667 31.7957 6.88V6.9C31.9024 6.99333 31.979 7.07667 32.0257 7.15C32.079 7.22333 32.1157 7.31 32.1357 7.41L32.7057 10H31.0057L30.5957 7.91C30.5624 7.72333 30.489 7.6 30.3757 7.54C30.269 7.48 30.0657 7.45 29.7657 7.45H29.3957L28.9457 10H27.3357L28.5657 3ZM30.3957 6.18C30.7624 6.18 31.0557 6.07 31.2757 5.85C31.5024 5.62333 31.6157 5.32667 31.6157 4.96C31.6157 4.50667 31.3157 4.28 30.7157 4.28H29.9557L29.6157 6.18H30.3957ZM39.3616 3H34.5716L33.3416 10H38.1316L38.3616 8.72H35.1816L35.4816 6.97H38.3216L38.5516 5.69H35.7116L35.9616 4.28H39.1416L39.3616 3ZM40.343 3H45.133L44.913 4.28H41.733L41.483 5.69H44.323L44.093 6.97H41.253L40.953 8.72H44.133L43.903 10H39.113L40.343 3Z" fill="white" fill-opacity="0.6"/>
<path d="M3.31551 0.70128H3.31561H13.3117H13.3118L13.3119 0.701433L15.8235 4.15456L8.31362 12.2901L0.80345 4.15495L3.3154 0.701433L3.31551 0.70128Z" stroke="white" stroke-opacity="0.6" stroke-width="1.40256"/>
<path d="M8.766 3.50635H11.9218L7.36344 8.06467L8.06472 4.90891H6.31152L9.46728 0.350586L8.766 3.50635Z" fill="white" fill-opacity="0.6"/>
</svg>
