<svg width="51" height="14" viewBox="0 0 51 14" fill="none" xmlns="http://www.w3.org/2000/svg">
<path fill-rule="evenodd" clip-rule="evenodd" d="M10.9729 0H49.9999C50.5522 0 50.9999 0.447715 50.9999 1V12.3243C50.9999 12.8766 50.5522 13.3243 49.9999 13.3243H10.9729V13.126C10.9747 13.1268 10.9765 13.1276 10.9782 13.1284C11.0225 13.1477 11.0704 13.1577 11.1187 13.1577C11.167 13.1577 11.2148 13.1477 11.2591 13.1284C11.3034 13.109 11.3432 13.0807 11.3761 13.0452L19.3391 4.41877C19.3941 4.35919 19.4267 4.28239 19.4314 4.20146C19.4362 4.12052 19.4127 4.04045 19.365 3.97486L16.6841 0.288936C16.619 0.199432 16.5337 0.126595 16.4351 0.0763789C16.3365 0.0261628 16.2274 -7.13342e-06 16.1167 8.25478e-06H10.9729V0ZM22.7001 10.14C21.7534 10.14 21.1001 9.92 20.7401 9.48C20.4934 9.17333 20.3701 8.75333 20.3701 8.22C20.3701 7.97333 20.3967 7.70333 20.4501 7.41L20.8001 5.41C21.1134 3.62333 22.2067 2.73 24.0801 2.73C24.8534 2.73 25.4401 2.89667 25.8401 3.23C26.2401 3.55667 26.4401 4.00667 26.4401 4.58C26.4401 4.81333 26.4067 5.05 26.3401 5.29C26.2801 5.53 26.2201 5.71 26.1601 5.83L26.0601 6.01H24.2901C24.4634 5.77 24.5501 5.49333 24.5501 5.18C24.5501 4.58 24.3001 4.28 23.8001 4.28C23.1267 4.28 22.7234 4.67 22.5901 5.45L22.2501 7.37C22.2167 7.55 22.2001 7.72667 22.2001 7.9C22.2001 8.36 22.4701 8.59 23.0101 8.59C23.5567 8.59 23.9067 8.31667 24.0601 7.77H23.2401L23.4401 6.66H26.0901L25.9301 7.52L25.8801 7.81C25.6001 9.36333 24.5401 10.14 22.7001 10.14ZM30.1661 10L30.2261 8.43H28.5561L28.0661 10H26.1561L28.7261 2.8H32.0261L32.0661 10H30.1661ZM29.7561 4.55L28.9661 7.09H30.2761L30.3861 4.55H29.7561ZM37.2323 6.25L36.1623 2.8H34.2823L33.0123 10H34.8123L35.5323 5.94L36.2123 8.36H37.5223L39.0623 5.94L38.3423 10H40.1523L41.4223 2.8H39.5323L37.2323 6.25ZM46.5968 10H41.5768L42.8468 2.8H47.8668L47.5868 4.36H44.3668L44.1368 5.71H46.7968L46.5168 7.27H43.8568L43.6568 8.44H46.8768L46.5968 10Z" fill="#FFCC47"/>
<path d="M3.31551 0.70128H3.31561H13.3117H13.3118L13.3119 0.701433L15.8235 4.15456L8.31362 12.2901L0.80345 4.15495L3.3154 0.701433L3.31551 0.70128Z" stroke="#FFCC47" stroke-width="1.40256"/>
<g clip-path="url(#clip0)">
<path d="M8.766 3.50641H11.9218L7.36344 8.06473L8.06472 4.90897H6.31152L9.46728 0.350647L8.766 3.50641Z" fill="#FFCC47"/>
</g>
<defs>
<clipPath id="clip0">
<rect x="4.90894" y="7.62939e-06" width="8.41536" height="8.41536" fill="white"/>
</clipPath>
</defs>
</svg>
