<svg width="51" height="14" viewBox="0 0 51 14" fill="none" xmlns="http://www.w3.org/2000/svg">
<path fill-rule="evenodd" clip-rule="evenodd" d="M10.9729 0H49.9999C50.5522 0 50.9999 0.447715 50.9999 1V12.3243C50.9999 12.8766 50.5522 13.3243 49.9999 13.3243H10.9729V13.126C10.9747 13.1268 10.9765 13.1276 10.9782 13.1284C11.0225 13.1477 11.0704 13.1577 11.1187 13.1577C11.167 13.1577 11.2148 13.1477 11.2591 13.1284C11.3034 13.109 11.3432 13.0807 11.3761 13.0452L19.3391 4.41877C19.3941 4.35919 19.4267 4.28239 19.4314 4.20146C19.4362 4.12052 19.4127 4.04045 19.365 3.97486L16.6841 0.288936C16.619 0.199432 16.5337 0.126595 16.4351 0.0763789C16.3365 0.0261628 16.2274 -7.13342e-06 16.1167 8.25478e-06H10.9729V0ZM30.0501 2.8L28.1501 8.25H27.9201L27.9501 2.8H25.9901L26.0701 10H29.2701L32.0001 2.8H30.0501ZM33.4844 10L34.7444 2.8H32.9444L31.6744 10H33.4844ZM38.2771 7.81H37.0871L36.6971 10H34.8971L36.1671 2.8H39.2171C39.9704 2.8 40.5071 2.97333 40.8271 3.32C41.0604 3.58667 41.1771 3.92667 41.1771 4.34C41.1771 4.48 41.1638 4.62667 41.1371 4.78L40.9371 5.91C40.8371 6.46333 40.5438 6.92 40.0571 7.28C39.5704 7.63333 38.9771 7.81 38.2771 7.81ZM38.5871 4.36H37.6871L37.3571 6.25H38.2471C38.7938 6.25 39.1104 6.00667 39.1971 5.52L39.2671 5.11C39.2804 5.05 39.2871 4.97 39.2871 4.87C39.2871 4.77 39.2371 4.66 39.1371 4.54C39.0371 4.42 38.8538 4.36 38.5871 4.36Z" fill="url(#paint0_linear)"/>
<path d="M3.31551 0.70128H3.31561H13.3117H13.3118L13.3119 0.701433L15.8235 4.15456L8.31362 12.2901L0.80345 4.15495L3.3154 0.701433L3.31551 0.70128Z" stroke="#60E2FF" stroke-width="1.40256"/>
<path d="M8.766 3.50635H11.9218L7.36344 8.06467L8.06472 4.90891H6.31152L9.46728 0.350586L8.766 3.50635Z" fill="#60E2FF"/>
<defs>
<linearGradient id="paint0_linear" x1="19.5" y1="-8.31645e-08" x2="51" y2="13" gradientUnits="userSpaceOnUse">
<stop stop-color="#60E2FF"/>
<stop offset="1" stop-color="#60E2FF"/>
</linearGradient>
</defs>
</svg>
